<?xml version="1.0" standalone="no"?><!DOCTYPE svg PUBLIC "-//W3C//DTD SVG 1.1//EN" "http://www.w3.org/Graphics/SVG/1.1/DTD/svg11.dtd"><svg t="1576419671961" class="icon" viewBox="0 0 1024 1024" version="1.1" xmlns="http://www.w3.org/2000/svg" p-id="2413" xmlns:xlink="http://www.w3.org/1999/xlink" width="32" height="32"><defs><style type="text/css">@font-face { font-family: element-icons; src: url("chrome-extension://moombeodfomdpjnpocobemoiaemednkg/fonts/element-icons.woff") format("woff"), url("chrome-extension://moombeodfomdpjnpocobemoiaemednkg/fonts/element-icons.ttf ") format("truetype"); }
</style></defs><path d="M511.998976 1024C229.230134 1024 0.002048 794.767818 0.002048 511.998976 0.002048 229.230134 229.230134 0 511.998976 0c282.77089 0 511.998976 229.230134 511.998976 511.998976C1023.997952 794.767818 794.767818 1024 511.998976 1024zM511.998976 64.00192C264.576495 64.00192 64.00192 264.576495 64.00192 511.998976c0 247.422481 200.574575 447.999104 447.997056 447.999104 247.424529 0 447.999104-200.576623 447.999104-447.999104C959.99808 264.576495 759.423505 64.00192 511.998976 64.00192zM703.998592 543.998912l-160.001728 0 0 160.001728c0 17.670109-14.325731 31.99584-31.999936 31.99584-17.672157 0-31.999936-14.325731-31.999936-31.99584l0-160.001728-159.997632 0c-17.672157 0-32.001984-14.327779-32.001984-31.999936 0-17.670109 14.329827-31.997888 32.001984-31.997888l159.997632 0 0-160.003776c0-17.672157 14.329827-31.99584 31.999936-31.99584 17.672157 0 31.999936 14.321635 31.999936 31.99584l0 160.003776 160.001728 0c17.672157 0 31.999936 14.327779 31.999936 31.997888C735.998528 529.671133 721.672797 543.998912 703.998592 543.998912z" p-id="2414" fill="currentColor"></path></svg>